<?xml version="1.0" encoding="UTF-8" standalone="no"?>
<!-- Created with Inkscape (http://www.inkscape.org/) -->

<svg
   width="180cm"
   height="60cm"
   viewBox="0 0 180 60"
   version="1.1"
   id="svg5"
   inkscape:version="1.2.2 (b0a8486541, 2022-12-01)"
   sodipodi:docname="logo-revault.svg"
   inkscape:export-filename="logo-revault-new.svg"
   inkscape:export-xdpi="96"
   inkscape:export-ydpi="96"
   xmlns:inkscape="http://www.inkscape.org/namespaces/inkscape"
   xmlns:sodipodi="http://sodipodi.sourceforge.net/DTD/sodipodi-0.dtd"
   xmlns="http://www.w3.org/2000/svg"
   xmlns:svg="http://www.w3.org/2000/svg">
  <sodipodi:namedview
     id="namedview7"
     pagecolor="#ffffff"
     bordercolor="#000000"
     borderopacity="0.25"
     inkscape:showpageshadow="2"
     inkscape:pageopacity="0.0"
     inkscape:pagecheckerboard="0"
     inkscape:deskcolor="#d1d1d1"
     inkscape:document-units="mm"
     showgrid="false"
     inkscape:zoom="0.097953832"
     inkscape:cx="3317.8896"
     inkscape:cy="1209.7536"
     inkscape:window-width="1920"
     inkscape:window-height="1043"
     inkscape:window-x="1600"
     inkscape:window-y="0"
     inkscape:window-maximized="1"
     inkscape:current-layer="layer-main" />
  <defs
     id="defs-main" />
  <g
     inkscape:label="main"
     inkscape:groupmode="layer"
     id="layer-main"
     transform="translate(-36,-110)">
    <g
       aria-label="re"
       id="re"
       style="font-size:37.7953px;fill:#e03e29;stroke-width:0.27"
       inkscape:label="label">
      <path
         d="m 69.190385,130.58649 q 0.609006,0 1.273377,0.0738 0.66437,0.0554 1.181103,0.16609 l -0.38755,2.84203 q -0.498277,-0.12918 -1.107284,-0.203 -0.609006,-0.0738 -1.144193,-0.0738 -1.218013,0 -2.306842,0.49828 -1.070375,0.47982 -1.882383,1.40256 -0.812009,0.90428 -1.273377,2.19611 -0.461369,1.27338 -0.461369,2.84203 v 10.85139 h -3.081941 v -20.22639 h 2.546754 l 0.332185,3.72785 h 0.129183 q 0.627461,-1.12574 1.513289,-2.04847 0.885827,-0.9412 2.048475,-1.49484 1.181104,-0.55364 2.620573,-0.55364 z"
         id="path307" />
      <path
         d="m 83.234439,130.58649 q 2.583663,0 4.429137,1.14419 1.845474,1.1442 2.823575,3.21113 0.978101,2.04847 0.978101,4.79823 v 1.90084 H 77.495016 q 0.05536,3.56176 1.771655,5.42569 1.716291,1.86393 4.835141,1.86393 1.919292,0 3.395671,-0.35064 1.476379,-0.35064 3.063487,-1.03347 v 2.69439 q -1.531744,0.68283 -3.045032,0.99656 -1.494834,0.31373 -3.543309,0.31373 -2.915849,0 -5.093507,-1.1811 -2.159205,-1.19956 -3.358762,-3.5064 -1.199558,-2.30684 -1.199558,-5.64715 0,-3.26649 1.088829,-5.64715 1.107284,-2.39912 3.100396,-3.69095 2.011566,-1.29183 4.724412,-1.29183 z m -0.03691,2.50984 q -2.45448,0 -3.912404,1.60557 -1.457924,1.60556 -1.734745,4.4845 h 10.703747 q -0.01845,-1.80857 -0.572097,-3.17422 -0.535188,-1.3841 -1.642472,-2.14075 -1.107284,-0.7751 -2.842029,-0.7751 z"
         id="path309" />
    </g>
    <g
       aria-label="|"
       id="vertical-bar"
       style="font-size:37.7953px;fill:#d2d2d2;stroke-width:0.27"
       inkscape:label="label">
      <path
         d="m 101.85008,122.44795 h 2.56521 v 37.88758 h -2.56521 z"
         id="path304" />
    </g>
    <g
       aria-label="vault"
       id="vault"
       style="font-size:37.7953px;fill:#505050;stroke-width:0.27"
       inkscape:label="label">
      <path
         d="m 118.44752,151.18198 -7.67717,-20.22639 h 3.28494 l 4.44759,12.23549 q 0.46137,1.25492 0.94119,2.76821 0.47983,1.51328 0.66437,2.43602 h 0.12919 q 0.22145,-0.92274 0.73819,-2.43602 0.51673,-1.53175 0.94119,-2.76821 l 4.44759,-12.23549 h 3.28494 l -7.69562,20.22639 z"
         id="path293" />
      <path
         d="m 140.44556,130.6234 q 3.61713,0 5.37033,1.62402 1.7532,1.62401 1.7532,5.18578 v 13.74878 h -2.23302 l -0.59055,-2.98967 h -0.14764 q -0.84892,1.10728 -1.77166,1.86393 -0.92273,0.73819 -2.14075,1.12574 -1.19955,0.36909 -2.95275,0.36909 -1.84548,0 -3.28495,-0.64591 -1.42101,-0.64592 -2.25147,-1.95621 -0.81201,-1.31028 -0.81201,-3.32185 0,-3.02658 2.39911,-4.65059 2.39912,-1.62402 7.30808,-1.77166 l 3.48794,-0.14764 v -1.23646 q 0,-2.62058 -1.12574,-3.6725 -1.12573,-1.05192 -3.17421,-1.05192 -1.58711,0 -3.02658,0.46137 -1.43947,0.46137 -2.7313,1.08883 l -0.94119,-2.32529 q 1.36565,-0.70128 3.13731,-1.19956 1.77165,-0.49828 3.72785,-0.49828 z m 4.09695,10.59302 -3.08194,0.12918 q -3.78322,0.14764 -5.33342,1.23647 -1.55019,1.08883 -1.55019,3.08194 0,1.73475 1.05192,2.56521 1.05192,0.83046 2.78666,0.83046 2.69439,0 4.41068,-1.49483 1.71629,-1.49484 1.71629,-4.4845 z"
         id="path295" />
      <path
         d="m 170.58215,130.95559 v 20.22639 h -2.50985 l -0.44291,-2.84203 h -0.16609 q -0.62746,1.05192 -1.62402,1.77165 -0.99656,0.71974 -2.25148,1.07038 -1.23647,0.36909 -2.63903,0.36909 -2.39911,0 -4.02313,-0.7751 -1.62402,-0.7751 -2.45448,-2.39911 -0.81201,-1.62402 -0.81201,-4.17077 v -13.2505 h 3.1004 v 13.02904 q 0,2.5283 1.14419,3.78322 1.1442,1.23647 3.48795,1.23647 2.25148,0 3.58022,-0.84892 1.34719,-0.84892 1.93774,-2.49139 0.59056,-1.66093 0.59056,-4.06004 v -10.64838 z"
         id="path297" />
      <path
         d="m 180.1417,151.18198 h -3.08194 v -28.71557 h 3.08194 z"
         id="path299" />
      <path
         d="m 193.13383,149.04123 q 0.75665,0 1.5502,-0.12919 0.79355,-0.12918 1.29183,-0.31373 v 2.38066 q -0.53519,0.23992 -1.49483,0.40601 -0.94119,0.16609 -1.84548,0.16609 -1.60556,0 -2.91584,-0.55364 -1.31029,-0.5721 -2.10384,-1.91929 -0.7751,-1.3472 -0.7751,-3.72786 V 133.3547 h -2.87894 v -1.49483 l 2.89739,-1.19956 1.21801,-4.39223 h 1.84548 v 4.68751 h 5.92397 v 2.39911 h -5.92397 v 11.90331 q 0,1.90083 0.86737,2.84203 0.88583,0.94119 2.34375,0.94119 z"
         id="path301" />
    </g>
  </g>
</svg>
